<svg xmlns="http://www.w3.org/2000/svg" viewBox="0 0 128 128" role="img" aria-label="SOHO Awards">
  <defs>
    <linearGradient id="g" x1="0" x2="1" y1="0" y2="1">
      <stop offset="0%" stop-color="#0f4f43"/>
      <stop offset="100%" stop-color="#13695a"/>
    </linearGradient>
  </defs>
  <rect width="128" height="128" rx="28" fill="url(#g)"/>
  <circle cx="98" cy="28" r="10" fill="#c19a5b"/>
  <path d="M34 86c6 7 15 11 25 11 15 0 27-9 27-22 0-13-11-18-23-21-10-3-17-5-17-11 0-5 5-9 13-9 7 0 13 2 19 7l8-10c-7-6-17-10-27-10-15 0-25 9-25 21 0 13 11 18 23 21 10 3 17 5 17 11 0 6-6 10-15 10-9 0-17-4-23-10z" fill="#f7f5f1"/>
</svg>